# xmcd CD database file
#
# Track frame offsets:
#	150
#	24027
#	65339
#	89570
#	133067
#	164187
#	191187
#	228994
#
# Disc length: 3558 seconds
#
# Revision: 0
# Processed by: cddbd v1.4PL0 Copyright (c) Steve Scherf et al.
# Submitted via: CDex 1.50
#
DISCID=6c0de408
DTITLE=Various Artist - Ancient Tales
DYEAR=1996
DGENRE=New Age
TTITLE0=Cusco-Montezuma
TTITLE1=Medwyn Goodall-Coral Palace
TTITLE2=Simon Cooper-Parting
TTITLE3=Gomer Edwin Evans-Across The Seven Seas
TTITLE4=Medwyn Goodall-The Grail
TTITLE5=Henri Seroka-Atlantis
TTITLE6=Gregor Theelen-Final Dance
TTITLE7=Mike Rowland-Come into the Fairy Ring
EXTD=YEAR: 1996
EXTT0=
EXTT1=
EXTT2=
EXTT3=
EXTT4=
EXTT5=
EXTT6=
EXTT7=
PLAYORDER=
